# xmcd
#
# Track frame offsets: 
#        150
#        11809
#        24381
#        39671
#        54542
#        68706
#        87035
#        100595
#        111960
#        128585
#        141907
#        158071
#        171821
#        183712
#
# Disc length: 2653 seconds
#
# Revision: 0
# Processed by: cddbd v1.4PL0 Copyright (c) Steve Scherf et al.
# Submitted via: ExactAudioCopy v0.90b4
#
DISCID=b40a5b0e
DTITLE=Christian Bleiming - Boogie-Woogie Power-Train
DYEAR=1995
DGENRE=Boogie
TTITLE0=Boogie-Woogie No. 321
TTITLE1=Friday Night special
TTITLE2=On the Spot
TTITLE3=Honky Tonk Train Blues
TTITLE4=A Delightful Blues
TTITLE5=Sixth Avenue Express
TTITLE6=Blues For Sunnyland
TTITLE7=Boogie-Woogie Power-Train
TTITLE8=Night-Train
TTITLE9=A.C. Blues
TTITLE10=Make Me a Pallet On the Floor
TTITLE11='fo Day Blues
TTITLE12=Rollin' and Steamnin'
TTITLE13=Blues For Ste. Chapelle
EXTD=
EXTT0=
EXTT1=
EXTT2=
EXTT3=
EXTT4=
EXTT5=
EXTT6=
EXTT7=
EXTT8=
EXTT9=
EXTT10=
EXTT11=
EXTT12=
EXTT13=
PLAYORDER=
